<svg xmlns="http://www.w3.org/2000/svg" width="40" height="40" viewBox="0 0 24 24">
    <rect width="24" height="24" fill="none" />
    <path fill="#fff" d="M12 10c4.418 0 8-1.79 8-4s-3.582-4-8-4s-8 1.79-8 4s3.582 4 8 4" stroke-width="0.6" stroke="#fff" />
    <path fill="#fff" d="M4 12v6c0 2.21 3.582 4 8 4s8-1.79 8-4v-6c0 2.21-3.582 4-8 4s-8-1.79-8-4" opacity="0.5" stroke-width="0.6" stroke="#fff" />
    <path fill="#fff" d="M4 6v6c0 2.21 3.582 4 8 4s8-1.79 8-4V6c0 2.21-3.582 4-8 4S4 8.21 4 6" opacity="0.7" stroke-width="0.6" stroke="#fff" />
</svg>